<svg xmlns="http://www.w3.org/2000/svg" enable-background="new 0 0 66 66" viewBox="0 0 66 66" id="safe-user"><path d="M62.6,56.4H61V29.1c-0.6,0.6-1.3,1.2-1.9,1.8v25.5H6V15.5c0-1.1,0.9-2.1,2.1-2.1h25.8v-1.9H8c-2.2,0-4,1.8-4,4v40.9H2.5
		c-0.5,0-1,0.4-1,1c0,4.2,3.4,7.6,7.6,7.6h46.8c4.2,0,7.6-3.4,7.6-7.6C63.5,56.8,63.1,56.4,62.6,56.4z"></path><path d="M13.1 42.2c-1.7.5-2.9 2.1-2.9 3.9v5.2c0 .5.4 1 1 1h25c.5 0 1-.4 1-1v-5.2c0-1.8-1.2-3.4-2.9-3.9l-6.1-1.9v-2.1c3-2.7 4.9-7.6 4.9-11.2 0-5.2-4.2-9.5-9.5-9.5s-9.5 4.2-9.5 9.5c0 3.6 1.9 8.5 4.9 11.2v2.2L13.1 42.2zM26.3 41c0 1.6-5.2 1.6-5.2 0v-1.6c1.8.9 3.4.8 5.2 0V41zM17.7 32.9c.9-1.2 1.5-3.5 1.6-5.7 1.5.9 3.2 1.3 5 1.3 1.6-.1 3-.5 4.2-1.3.2 1.4.6 3.2 1.6 4.1.1.1.2.1.3.2C27.4 39.3 21.6 40.9 17.7 32.9zM63.5 1H36.8c-.5 0-1 .4-1 1v13.4c0 8.6 5.8 15.9 14.1 17.8.2 0 .2 0 .4 0 8.3-1.9 14.2-9.2 14.2-17.8V2C64.5 1.4 64.1 1 63.5 1zM59.2 13.9L48.8 24.3c-.4.4-1 .4-1.4 0L41.1 18c-.4-.4-.4-1 0-1.4l2.7-2.7c.4-.4 1-.4 1.4 0l2.9 2.9 7-7c.4-.4 1-.4 1.4 0l2.7 2.7c.2.2.3.4.3.7S59.4 13.7 59.2 13.9z"></path><path d="M48.8,18.8c-0.4,0.4-1,0.4-1.4,0l-2.9-2.9l-1.4,1.4l5,5l9-9l-1.4-1.4L48.8,18.8z"></path></svg>