<svg xmlns="http://www.w3.org/2000/svg" viewBox="0 0 32 32" id="storage"><path d="M25.855 10.296a10.002 10.002 0 0 0-19.71 0 6 6 0 0 0-4.071 6.656A6.141 6.141 0 0 0 8.193 22H12a1 1 0 0 0 0-2H8.193a4.13 4.13 0 0 1-4.143-3.355 4.002 4.002 0 0 1 3.185-4.568 1 1 0 0 0 .805-.882 8 8 0 0 1 15.92 0 1 1 0 0 0 .804.882 4.002 4.002 0 0 1 3.186 4.568A4.13 4.13 0 0 1 23.807 20H20a1 1 0 0 0 0 2h3.808a6.141 6.141 0 0 0 6.119-5.048 6 6 0 0 0-4.072-6.656Z"></path><path d="M19.335 24.697 17 26.773v-15.05a1 1 0 0 0-2 0v15.05l-2.335-2.076a1 1 0 1 0-1.33 1.494l4 3.556a1 1 0 0 0 1.33 0l4-3.556a1 1 0 1 0-1.33-1.494Z"></path></svg>